<?xml version="1.0" encoding="UTF-8"?>
<svg width="43px" height="43px" viewBox="0 0 43 43" version="1.1" xmlns="http://www.w3.org/2000/svg" xmlns:xlink="http://www.w3.org/1999/xlink">
    <!-- Generator: Sketch 52.5 (67469) - http://www.bohemiancoding.com/sketch -->
    <title>Group 5 Copy</title>
    <desc>Created with Sketch.</desc>
    <g id="Page-1" stroke="none" stroke-width="1" fill="none" fill-rule="evenodd">
        <g id="HOME_lignes_directes-Copy" transform="translate(-197.000000, -803.000000)">
            <g id="Group-5-Copy" transform="translate(218.500000, 824.500000) scale(-1, -1) translate(-218.500000, -824.500000) translate(198.000000, 804.000000)">
                <path d="M26.2804439,15.3824004 C25.8543638,14.9254 25.153068,14.8572508 24.7049557,15.2910003 C24.2269692,15.7520095 24.2124056,16.5429409 24.6612648,17.0251966 L26.6381869,19.1478432 C26.8614962,19.3875679 26.7035366,19.7968639 26.3876174,19.7968639 L9.17674411,19.7968639 C8.57328621,19.7968639 8.03331088,20.2815249 8.00156959,20.9281403 C7.96796117,21.6172488 8.47843577,22.1880985 9.11363496,22.1880985 L26.3876174,22.1880985 C26.7035366,22.1880985 26.8614962,22.5973944 26.6381869,22.8371192 L24.706076,24.9120614 C24.2796224,25.3690618 24.2168867,26.1223107 24.6201878,26.6033638 C25.0503756,27.1160861 25.7871469,27.1317204 26.2360061,26.6502664 L30.6420703,21.9203123 C31.1193099,21.4075899 31.1193099,20.5765707 30.6420703,20.0646501 L26.2804439,15.3824004 Z" id="Fill-1" fill="#FFFFFF"></path>
                <circle id="Oval" stroke="#FFFFFF" fill-rule="nonzero" cx="20.5" cy="20.5" r="20.5"></circle>
            </g>
        </g>
    </g>
</svg>