<?xml version="1.0" encoding="UTF-8"?> <svg xmlns="http://www.w3.org/2000/svg" id="Layer_1" data-name="Layer 1" viewBox="0 0 175.92 175.93"><defs><style>.cls-1{fill:#231f20;}.cls-2{fill:#fff;}</style></defs><title>reseaux-sociaux [Converti]</title><path class="cls-1" d="M175.92,139.79a36.14,36.14,0,0,1-36.13,36.13H36.13A36.14,36.14,0,0,1,0,139.79V36.14A36.14,36.14,0,0,1,36.13,0H139.79a36.14,36.14,0,0,1,36.13,36.14Z"></path><path class="cls-2" d="M113.42,21.63H62.5A40.88,40.88,0,0,0,21.62,62.51v50.92A40.88,40.88,0,0,0,62.5,154.3h50.92a40.87,40.87,0,0,0,40.88-40.87V62.51A40.88,40.88,0,0,0,113.42,21.63Zm28.14,86.91a33,33,0,0,1-33,33H67.39a33,33,0,0,1-33-33V67.39a33,33,0,0,1,33-33h41.15a33,33,0,0,1,33,33Z"></path><path class="cls-2" d="M89.74,53.25a34.95,34.95,0,1,0,34.95,34.94A34.94,34.94,0,0,0,89.74,53.25Zm0,56a21,21,0,1,1,21-21A21,21,0,0,1,89.74,109.22Z"></path><circle class="cls-2" cx="122.27" cy="52.7" r="8.89"></circle></svg> 