<?xml version="1.0" encoding="UTF-8"?> <svg xmlns="http://www.w3.org/2000/svg" id="Layer_1" data-name="Layer 1" viewBox="0 0 175.92 175.92"><defs><style>.cls-1{fill:#231f20;}.cls-2{fill:#fff;}</style></defs><title>reseaux-sociaux [Converti]</title><path class="cls-1" d="M175.92,88a88,88,0,0,1-88,88h0A88,88,0,0,1,0,88H0A88,88,0,0,1,88,0h0a88,88,0,0,1,88,88Z"></path><path class="cls-2" d="M46.06,73.43H64v57.78h-18Zm9-28.72A10.41,10.41,0,1,1,44.64,55.13,10.42,10.42,0,0,1,55,44.71"></path><path class="cls-2" d="M75.28,73.43H92.51v7.9h.25c2.4-4.55,8.25-9.33,17-9.33,18.19,0,21.54,12,21.54,27.51v31.69h-18v-28.1c0-6.7-.12-15.32-9.33-15.32S93.23,95.1,93.23,102.63v28.58h-18Z"></path></svg> 