<?xml version="1.0" encoding="UTF-8"?>
<svg width="44px" height="21px" viewBox="0 0 44 21" version="1.1" xmlns="http://www.w3.org/2000/svg" xmlns:xlink="http://www.w3.org/1999/xlink">
    <!-- Generator: Sketch 52.5 (67469) - http://www.bohemiancoding.com/sketch -->
    <title>Group 3</title>
    <desc>Created with Sketch.</desc>
    <g id="Page-1" stroke="none" stroke-width="1" fill="none" fill-rule="evenodd">
        <g id="HOME_lignes_directes-Copy" transform="translate(-499.000000, -625.000000)" fill="#FFFFFF">
            <g id="Group" transform="translate(178.000000, 599.000000)">
                <g id="Group-3" transform="translate(321.000000, 26.000000)">
                    <path d="M43.3152649,8.8631377 L34.9712839,0.669200681 C34.1561742,-0.130550021 32.8145649,-0.249811091 31.9573066,0.509250541 C31.0428977,1.3160166 31.0150368,2.70014654 31.8737239,3.544094 L35.6556618,7.25872555 C36.0828622,7.6782439 35.7806787,8.39451185 35.1763116,8.39451185 L2.25116265,8.39451185 C1.09672144,8.39451185 0.0637251667,9.24266852 0.00300270241,10.3742456 C-0.0612916716,11.5801855 0.915268431,12.5791723 2.1304321,12.5791723 L35.1763116,12.5791723 C35.7806787,12.5791723 36.0828622,13.2954403 35.6556618,13.7149586 L31.9594497,17.3461074 C31.1436255,18.1458581 31.0236094,19.4640437 31.7951419,20.3058866 C32.6181099,21.2031507 34.0275854,21.2305106 34.8862725,20.3879662 L43.3152649,12.1105465 C44.228245,11.2132823 44.228245,9.7589988 43.3152649,8.8631377" id="Fill-1"></path>
                </g>
            </g>
        </g>
    </g>
</svg>