<svg id="Layer_1" data-name="Layer 1" xmlns="http://www.w3.org/2000/svg" viewBox="0 0 211 152"><defs><style>.cls-1{fill:#1cbac8;}</style></defs><title>reseaux-sociaux [Converti]</title><path class="cls-1" d="M195,0H16A16,16,0,0,0,0,16V136a16,16,0,0,0,16,16H195a16,16,0,0,0,16-16V16A16,16,0,0,0,195,0ZM16,8H195a8,8,0,0,1,7.78,6.18l-.07,0L104,83.11,8,15.45A8,8,0,0,1,16,8ZM195,144H16a8,8,0,0,1-8-8V120.73L70.1,82.4a4,4,0,1,0-4.2-6.81L8,111.33V25.21l93.7,66.06a4,4,0,0,0,.42.25l.09.05a4,4,0,0,0,.79.29l.17,0a4,4,0,0,0,.83.1h0a4,4,0,0,0,.83-.1l.17,0a4,4,0,0,0,.78-.29l.1-.06a4,4,0,0,0,.4-.24L203,23.77v87.56L145.1,75.6a4,4,0,1,0-4.2,6.81L203,120.73V136A8,8,0,0,1,195,144Z"/><path class="cls-1" d="M22,123a4,4,0,0,0-4,4v10a4,4,0,0,0,8,0V127A4,4,0,0,0,22,123Z"/><path class="cls-1" d="M37,123a4,4,0,0,0-4,4v10a4,4,0,0,0,8,0V127A4,4,0,0,0,37,123Z"/><path class="cls-1" d="M52,123a4,4,0,0,0-4,4v10a4,4,0,0,0,8,0V127A4,4,0,0,0,52,123Z"/><path class="cls-1" d="M67,123a4,4,0,0,0-4,4v10a4,4,0,0,0,8,0V127A4,4,0,0,0,67,123Z"/><path class="cls-1" d="M82,123a4,4,0,0,0-4,4v10a4,4,0,0,0,8,0V127A4,4,0,0,0,82,123Z"/><path class="cls-1" d="M97,123a4,4,0,0,0-4,4v10a4,4,0,0,0,8,0V127A4,4,0,0,0,97,123Z"/><path class="cls-1" d="M112,123a4,4,0,0,0-4,4v10a4,4,0,0,0,8,0V127A4,4,0,0,0,112,123Z"/><path class="cls-1" d="M127,123a4,4,0,0,0-4,4v10a4,4,0,0,0,8,0V127A4,4,0,0,0,127,123Z"/><path class="cls-1" d="M142,123a4,4,0,0,0-4,4v10a4,4,0,0,0,8,0V127A4,4,0,0,0,142,123Z"/><path class="cls-1" d="M157,123a4,4,0,0,0-4,4v10a4,4,0,0,0,8,0V127A4,4,0,0,0,157,123Z"/><path class="cls-1" d="M172,123a4,4,0,0,0-4,4v10a4,4,0,0,0,8,0V127A4,4,0,0,0,172,123Z"/><path class="cls-1" d="M187,123a4,4,0,0,0-4,4v10a4,4,0,0,0,8,0V127A4,4,0,0,0,187,123Z"/></svg>