<svg id="Layer_1" data-name="Layer 1" xmlns="http://www.w3.org/2000/svg" viewBox="0 0 250.23 223.54"><defs><style>.cls-1{fill:#1cbac8;}</style></defs><title>reseaux-sociaux [Converti]</title><path class="cls-1" d="M244.67,147.76l-67.32-30.5A9.5,9.5,0,0,0,164.8,122l-6.6,14.57a9.49,9.49,0,0,0,3.7,12L159.13,165c-1.53,5.44-4.3,6.5-6.26,6.82-21.22,3.48-79.91-58.31-88.12-70.62-1.43-2.14-3-5.24-2.28-7.83A6.27,6.27,0,0,1,65.12,90a9.46,9.46,0,0,0,10.71,2l14.55-6.64a9.5,9.5,0,0,0,4.69-12.56L64.4,5.55A9.49,9.49,0,0,0,51.84.85L37.29,7.49A9.49,9.49,0,0,0,32,18.4C24.87,21.31,6.3,30.8,1.29,52.57c-7.06,30.66,15,71.85,65.58,122.43l.14.11.13.13c38.5,32.12,72.31,48.3,100.84,48.3A68.27,68.27,0,0,0,186.69,221c28.35-8,40.88-32.69,44.4-41.08a9.38,9.38,0,0,0,3.05.52,9.52,9.52,0,0,0,3.35-.62,9.42,9.42,0,0,0,5.3-5l6.6-14.57h0A9.49,9.49,0,0,0,244.67,147.76ZM39.85,15.6a1.47,1.47,0,0,1,.77-.83L55.16,8.13a1.42,1.42,0,0,1,.6-.13,1.54,1.54,0,0,1,.53.1,1.47,1.47,0,0,1,.83.77L87.79,76.11a1.5,1.5,0,0,1-.73,2L72.51,84.71a1.5,1.5,0,0,1-2-.73L39.88,16.73A1.47,1.47,0,0,1,39.85,15.6ZM184.5,213.31c-16.9,4.79-34.83,1.28-50.81-5.11-21.81-8.71-42.84-22.62-60.29-38.27-17.11-15.35-32.59-34.11-45.27-53.23-10.69-16.12-21.42-35.79-20-55.8a42.31,42.31,0,0,1,1-6.54C13.31,36,29.32,28.09,35.2,25.75L61.28,82.94a14.29,14.29,0,0,0-6.5,8.23c-1.26,4.45-.14,9.33,3.31,14.51,3.59,5.38,20.48,24.67,40,42.38C121.43,169.25,139.3,180,151.27,180a17.77,17.77,0,0,0,2.88-.22c4.43-.72,10.24-3.53,12.75-12.8,0-.13.06-.25.08-.38L169.42,152l54.34,24.62C220.84,183.62,209.58,206.2,184.5,213.31ZM242.1,157l-6.6,14.57a1.49,1.49,0,0,1-2,.74l-67.32-30.5a1.5,1.5,0,0,1-.74-2l6.6-14.57a1.48,1.48,0,0,1,.83-.77,1.55,1.55,0,0,1,.54-.1,1.43,1.43,0,0,1,.59.13l67.32,30.5A1.5,1.5,0,0,1,242.1,157Z"/><path class="cls-1" d="M64.62,126.71c-2.42-3.22-12.9-18.14-13-18.29a4,4,0,0,0-6.55,4.6c.43.62,10.66,15.16,13.15,18.49a4,4,0,0,0,6.4-4.8Z"/><path class="cls-1" d="M124.28,178.77c-13-3.64-43.18-33.76-52.78-44.08l0,0a4,4,0,0,0-6.93,3,3.35,3.35,0,0,0,1.09,2.45h0l0,0,.22.22c1,1.14,2.77,3,6,6.25,3.5,3.56,8.94,9,15,14.57,15.8,14.66,27.68,23.18,35.3,25.31a4,4,0,0,0,2.16-7.7Z"/></svg>